Coordinates
version=1
nRows=13
nColumns=36
inDegrees=yes

Units are S.I. units (second, meters, Newtons, ...)
If the header above contains a line with 'inDegrees', this indicates whether rotational values are in degrees (yes) or radians (no).

endheader
time	pelvis_tilt	pelvis_list	pelvis_rotation	pelvis_tx	pelvis_ty	pelvis_tz	hip_flexion_r	hip_adduction_r	hip_rotation_r	knee_angle_r	knee_angle_r_beta	ankle_angle_r	subtalar_angle_r	mtp_angle_r	hip_flexion_l	hip_adduction_l	hip_rotation_l	knee_angle_l	knee_angle_l_beta	ankle_angle_l	subtalar_angle_l	mtp_angle_l	lumbar_extension	lumbar_bending	lumbar_rotation	arm_flex_r	arm_add_r	arm_rot_r	elbow_flex_r	pro_sup_r	arm_flex_l	arm_add_l	arm_rot_l	elbow_flex_l	pro_sup_l
      3.35000000	      8.42894361	      5.16293129	      8.51253598	     -0.30136416	      0.95503572	     -0.00686300	     46.61501833	     -8.00961601	      8.08092685	     32.58774816	      0.56876350	      2.55601377	      7.87225257	     -7.49999987	     14.97358820	     11.27130315	     -0.41251927	     38.47628218	      0.67153781	     27.15749546	     -5.48575746	     -7.49999987	    -24.57986101	     -7.17590109	     -4.31002657	     57.86385929	     -8.04139417	     54.33957128	    134.00775828	     86.14369796	     58.20081226	     -5.90597258	     44.81753689	    122.36175869	     92.40980783
      3.36666670	      8.02180847	      6.55032439	      9.12408741	     -0.30881958	      0.95000121	     -0.00184881	     47.64532312	     -9.27013936	      9.14806549	     32.97619488	      0.57554318	      2.40710163	      7.90251608	     -7.49999987	     16.57669402	     12.99244982	     -0.46486886	     40.21143407	      0.70182192	     27.50971464	     -6.19084374	     -7.49999987	    -26.05751764	     -7.88055512	     -5.15157168	     59.84873752	     -8.45912150	     54.47833734	    132.03061372	     86.00782929	     60.92558973	     -6.09597518	     46.32258561	    122.73072970	     92.84111954
      3.38333330	      7.66252330	      8.04373637	      9.80025139	     -0.31409714	      0.94916749	     -0.00473244	     48.62148337	    -10.70517715	      9.83169884	     33.06739148	      0.57713486	      1.89489801	      7.98212696	     -7.49999987	     17.90292369	     14.85414215	     -0.52747106	     41.60001655	      0.72605726	     27.38133712	     -6.95794866	     -7.49999987	    -27.81981730	     -8.48070113	     -6.25260574	     61.92512897	     -8.84111809	     54.35185092	    129.67123396	     85.85722553	     63.23255132	     -6.94236110	     47.14319622	    122.27528021	     93.14822622
      3.40000000	      7.01773137	      9.42179701	     10.54614482	     -0.31468293	      0.94404187	     -0.00435479	     49.69177855	    -12.11774234	     10.32679218	     32.92497536	      0.57464923	      1.64030888	      8.34011851	     -7.49999987	     19.40124618	     16.62870316	     -0.51436783	     42.81813574	      0.74731745	     27.06030624	     -7.85368139	     -7.49999987	    -29.02354839	     -9.08560678	     -7.74280965	     63.66586781	     -8.23769602	     55.26663878	    127.57569987	     85.96506087	     65.91760951	     -7.55782897	     48.99562897	    122.74942514	     93.49816839
      3.41666670	      6.24734893	     10.66341546	     11.24508587	     -0.31964211	      0.93645069	     -0.00023661	     51.05286748	    -13.29298893	     10.97659528	     33.03448752	      0.57656057	      1.53271468	      8.55079017	     -7.49999987	     21.10104955	     18.14620233	     -0.72590632	     44.14954355	      0.77055490	     26.62149977	     -8.69720519	     -7.49999987	    -30.13307210	     -9.58274042	     -8.92651618	     64.94699061	     -7.85920886	     55.53075057	    126.57923243	     84.69774320	     67.54968823	     -7.89116550	     49.90121303	    123.09293642	     92.20173090
      3.43333330	      5.48858870	     11.75123881	     11.89086446	     -0.32587517	      0.92847014	     -0.00455762	     52.66528540	    -14.30979324	     11.72072906	     33.67660271	      0.58776760	      1.52521598	      8.59490034	     -7.49999987	     23.10320618	     19.50792094	     -1.03695124	     45.86071585	      0.80042049	     26.38123274	     -9.41471341	     -7.49999987	    -31.14658404	     -9.67316574	    -10.02683751	     66.03207375	     -8.13591332	     56.20789352	    127.82288170	     84.86334769	     69.07021136	     -7.79858745	     49.95734693	    122.49047272	     92.37398445
      3.45000000	      4.10349771	     12.82007111	     12.31866542	     -0.32460037	      0.92388678	     -0.00448731	     54.85880312	    -15.15598211	     12.75476324	     34.13715419	      0.59580574	      1.54866575	      9.02936153	     -7.49999987	     25.35747225	     20.92001945	     -1.42107402	     46.92286257	      0.81895845	     25.56864465	    -10.52041221	     -7.49999987	    -31.04792951	    -10.12170610	    -10.53342007	     66.41667639	     -8.62000291	     55.48630362	    126.48649971	     85.12213780	     70.07555950	     -7.64434541	     49.88712742	    121.48384242	     92.71147380
      3.46666670	      2.78987710	     13.94229901	     12.85435230	     -0.33018085	      0.91438374	     -0.00808358	     56.98023171	    -16.05627007	     13.83895962	     34.70173842	      0.60565959	      1.47527462	      9.38337170	     -7.49999987	     27.57868090	     22.30452851	     -2.17598324	     47.94667700	      0.83682738	     25.20720524	    -11.01209815	     -7.49999987	    -31.22690777	    -10.39233613	    -11.59596651	     67.37395807	     -8.82315225	     54.31496298	    124.05639878	     84.43924051	     71.63771850	     -8.18209185	     49.44025861	    120.60611084	     91.40958927
      3.48333330	      1.36108103	     15.25209071	     13.61964868	     -0.34004652	      0.91168757	     -0.01540155	     59.24538456	    -17.32136797	     14.91013746	     35.16439016	      0.61373439	      1.28562778	     10.27333936	     -7.49999987	     29.87434844	     24.02114317	     -3.09477607	     48.65087972	      0.84911804	     24.44841870	    -11.55623229	     -7.49999987	    -31.64366471	    -10.54808304	    -12.87132616	     68.46641855	     -9.92937464	     53.74636228	    121.85857164	     84.90468502	     73.07866816	     -8.72775016	     50.21426673	    119.11653173	     91.87334827
      3.50000000	      0.21899718	     16.50858884	     14.09939980	     -0.33904253	      0.90994201	     -0.02353133	     60.92737285	    -18.57611929	     15.59266565	     35.15775925	      0.61361866	      1.20775454	     11.45341362	     -7.49999987	     31.59701292	     25.61431805	     -4.00826387	     48.89896209	      0.85344789	     23.68485879	    -11.79237581	     -7.49999987	    -32.02114893	    -10.36477222	    -13.32652331	     69.49191992	    -11.11753745	     54.30789919	    122.19842877	     85.40436763	     73.12130787	     -8.28303487	     48.71081501	    116.53309822	     92.14381285
      3.51666670	     -1.17719768	     17.55986908	     14.61636211	     -0.34800758	      0.90317439	     -0.03019123	     63.12668641	    -19.63853256	     16.38840020	     35.56349561	      0.62070009	      0.78845202	     12.24823575	     -7.49999987	     34.08371226	     27.02553421	     -5.33206469	     49.63609761	      0.86631333	     22.78094272	    -12.09406926	     -7.49999987	    -32.09624572	     -9.97377952	    -14.00567915	     71.31112122	    -12.40379253	     56.93474499	    124.48503308	     86.21349536	     74.57644516	     -6.52810991	     50.09846412	    116.78440442	     92.73689086
      3.53333330	     -2.50785633	     18.43617158	     15.09297750	     -0.34772123	      0.90091109	     -0.03024318	     65.06875574	    -20.48591548	     16.93901187	     35.72191675	      0.62346506	      0.54571454	     12.95330603	     -7.49999987	     36.37738670	     28.14488889	     -6.64615760	     50.24251777	      0.87689736	     22.01704337	    -12.24000036	     -7.49999987	    -31.98051833	     -9.54326167	    -14.57053510	     71.96501342	    -14.06332300	     59.41546685	    126.30804493	     86.97509164	     75.15061173	     -5.74477677	     51.56975864	    116.75332520	     93.47336778
      3.55000000	     -3.78942400	     19.03959631	     15.36176156	     -0.35114439	      0.89847381	     -0.03334504	     66.88317823	    -20.98916640	     17.18625745	     35.73197446	      0.62364060	      0.25489754	     13.44917366	     -7.49999987	     38.64749819	     28.82180353	     -7.95697240	     50.83854914	      0.88730007	     21.26922894	    -12.21979672	     -7.49999987	    -31.75684973	     -9.02115980	    -14.70940862	     72.82524484	    -14.93925862	     60.48598358	    126.83594292	     93.14653728	     75.29993599	     -4.75039850	     51.27629167	    115.87775206	     99.33645023
